<?xml version="1.0" encoding="utf-8"?>
<!-- Generator: Adobe Illustrator 23.0.1, SVG Export Plug-In . SVG Version: 6.00 Build 0)  -->
<svg version="1.1" id="Слой_1" xmlns="http://www.w3.org/2000/svg" xmlns:xlink="http://www.w3.org/1999/xlink" x="0px" y="0px"
	 viewBox="0 0 279 439" style="enable-background:new 0 0 279 439;" xml:space="preserve">
<style type="text/css">
	.st0{fill:#FE8700;}
	.st1{fill:#FEFEFE;}
</style>
<g>
	<path class="st0" d="M276,238c0,1.67,0,3.33,0,5c-1.14,1.03-1.75,2.25-2.12,3.81c-9.25,38.68-19.2,77.19-28.73,115.81
		c-0.64,2.59-1.42,5.13-2.55,7.52c4.86-8.85,10.32-17.34,15.87-25.75c0.97-1.46,2.56-2.2,4.37-1.62c1.65,0.53,2.1,1.99,2.29,3.54
		c0.27,2.15,0.24,4.32,0.25,6.48c0.01,17.81-0.05,35.62,0.04,53.43c0.03,5.85-1.19,11.58-1.25,17.41c-0.04,3.62-2.18,5.2-5.68,5.67
		c-14.34,1.93-28.75,3.2-43.09,5.05c-19.6,2.53-39.3,4-59.02,5.12c-2.78,0.16-5.63-0.57-8.36,0.53c-6.67,0-13.33,0-20,0
		c-9.86-1.23-19.8-1.3-29.7-1.91c-16.45-1.02-32.75-3.28-49.1-5.11c-10.41-1.17-20.83-2.19-31.21-3.58
		c-4.28-0.57-5.97-2.6-6.31-6.78c-2.01-24.6-0.73-49.23-0.96-73.84c-0.02-2.25-0.32-5.07,2.49-5.96c3.05-0.98,4.4,1.52,5.74,3.66
		c5.1,8.17,10.65,16.08,13.23,21.31C24.4,332.57,11.66,294.63,6,255c0-4.33,0-8.67,0-13c2.3-1.21,3.92,0.08,5.17,1.69
		c12.05,15.51,24.38,30.8,36.27,46.44c0.51,0.67,0.6,1.55,0.61,1.56c-7.37-20.39-14.01-41.87-20.89-63.27
		c-0.61-1.89-1.19-4,0.61-5.61c2.06-1.84,4.06-0.48,6,0.43c1.2,0.57,2.32,1.3,3.45,2.02c5.13,3.26,6.27,2.99,9.18-2.52
		c4.98-9.42,10.13-18.75,15.17-28.14c2.99-5.57,5.49-6.27,10.79-2.88c5.48,3.49,10.76,7.28,16.26,10.74c3.84,2.42,4.94,2,5.8-2.31
		c4.56-23.03,9.23-46.04,13.81-69.06c0.72-3.6-0.75-5.49-3.73-7.21c-18.43-10.64-29.97-26.59-33.18-47.46
		C68.04,55,72.91,35.33,88.79,19.44c3.05-3.06,6.03-6.18,9.48-8.86C105.88,4.67,114.6,1.99,124,1c9.33,0,18.67,0,28,0
		c27.65,1.28,50.21,30.83,53,53.97c3.47,28.87-8.54,53.99-32.61,68.36c-3.9,2.33-5.31,4.59-4.38,9.18
		c4.56,22.34,9.04,44.69,13.45,67.06c0.97,4.94,2.01,5.39,6.29,2.66c5.34-3.4,10.5-7.07,15.83-10.48c5.34-3.41,7.84-2.74,10.82,2.76
		c4.98,9.22,10.03,18.42,14.92,27.69c3.22,6.1,4.11,6.25,9.85,2.87c2.71-1.6,5.61-4.91,8.92-2.22c3.08,2.51,0.6,5.94-0.3,8.8
		c-5.6,17.79-11.35,35.53-17.35,53.19c-0.95,2.79-1.92,5.55-3.4,8.1c4.52-7.79,10.52-14.52,16.03-21.58
		c8.29-10.62,16.54-21.28,25.02-31.74C270.27,236.96,272.63,234.96,276,238z"/>
	<path class="st1" d="M137.89,21c25.38-1.06,45.16,20.74,44.83,44.13c-0.36,25.67-18.94,44.78-44.87,44.68
		c-26.43-0.11-44.52-19.86-44.58-44.96C93.22,40.83,113.44,20,137.89,21z"/>
	<path class="st0" d="M138.18,89c-13.19,0.72-24.41-11.45-24.07-23.79c0.4-14.55,10.49-23.95,23.95-23.87
		c13.65,0.08,23.19,9.39,23.82,23.51C162.44,77.31,151.16,89.56,138.18,89z"/>
	<path class="st1" d="M137.27,61.99c2.85,0.04,3.76,1.09,3.72,3.1c-0.03,2.06-1.09,2.94-3.09,2.91c-2.06-0.03-2.92-1.09-2.91-3.08
		C135.01,62.81,136.17,62.04,137.27,61.99z"/>
</g>
</svg>
