<?xml version="1.0" encoding="utf-8"?>
<!-- Generator: Adobe Illustrator 23.0.1, SVG Export Plug-In . SVG Version: 6.00 Build 0)  -->
<svg version="1.1" id="Слой_1" xmlns="http://www.w3.org/2000/svg" xmlns:xlink="http://www.w3.org/1999/xlink" x="0px" y="0px"
	 viewBox="0 0 209 146" style="enable-background:new 0 0 209 146;" xml:space="preserve">
<style type="text/css">
	.st0{fill:#FE8700;}
</style>
<g>
	<path class="st0" d="M210,143c0.74,3.4-0.55,4.1-3.98,4.1c-67.01-0.13-134.02-0.13-201.04,0C1.55,147.1,0.26,146.4,1,143
		c4.3-17.67,15.36-32.34,22.12-49.42c-4.61-0.01-8.56,1.83-12.71,2.53c-2.24,0.38-4.71,1.44-6.53-0.82
		c-1.81-2.25-0.35-4.44,0.58-6.54c8.37-19.06,17.48-37.77,25.99-56.77c2.1-4.69,4.32-5.86,10.66-5.13
		c6.94,0.79,13.89,1.46,20.82,2.37c1.12,0.15,2.25,0.68,3.6-0.33c-3.29-5.19-7.66-9.5-11.62-14.11c-2.39-2.77-4.5-5.78-7.11-8.37
		C45.26,4.88,44.67,3.04,46,1c4.33,0,8.67,0,13,0c14.88,1.49,29.52,4.31,44.02,7.9c1.64,0.41,3.31,0.41,4.95,0
		C122.48,5.31,137.12,2.49,152,1c4.33,0,8.67,0,13,0c1.76,2.83-0.13,4.61-1.78,6.56c-5.47,6.49-11.17,12.78-16.49,19.39
		c-0.5,0.62-1.25,1.14-0.92,2.46c6.7-0.29,13.41-1.25,20.11-2.03c11.48-1.34,11.55-1.45,16.57,9.21
		c8.15,17.33,16.23,34.69,24.03,52.17c0.94,2.1,2.39,4.29,0.58,6.54c-1.82,2.26-4.29,1.23-6.53,0.81
		c-4.06-0.77-7.97-2.25-12.75-2.81C194.47,110.56,205.72,125.26,210,143z"/>
</g>
</svg>
