<?xml version="1.0" encoding="utf-8"?>
<!-- Generator: Adobe Illustrator 23.0.1, SVG Export Plug-In . SVG Version: 6.00 Build 0)  -->
<svg version="1.1" id="Слой_1" xmlns="http://www.w3.org/2000/svg" xmlns:xlink="http://www.w3.org/1999/xlink" x="0px" y="0px"
	 viewBox="0 0 285 445" style="enable-background:new 0 0 285 445;" xml:space="preserve">
<style type="text/css">
	.st0{fill:#FECE98;}
	.st1{fill:#FE8600;}
	.st2{fill:#FED5A7;}
	.st3{fill:#FEC789;}
	.st4{fill:#FEF4EA;}
	.st5{fill:#FEF6EC;}
</style>
<g>
	<path class="st0" d="M73.18,432.81c-19.08-2.2-38.15-4.5-57.26-6.51c-3.45-0.36-3.91-1.86-3.91-4.78
		c0.03-22.13-0.05-44.27-0.16-66.4c-0.02-3.41-0.32-6.82,0.24-10.59c7.66,12.14,15.32,24.28,22.99,36.41
		c1.53,0.08,1.66-0.19,0.95-1.99c-5.84-23.62-11.66-47.25-17.52-70.87c-4.15-16.71-8.34-33.42-12.55-50.11
		C5.53,256.24,5.45,254.34,4,253c0-3.33,0-6.67,0-10c3.2-0.45,4.18,2.27,5.64,4.12c13.3,16.83,26.42,33.82,40.47,51.52
		c-8.11-23.12-14.87-45.51-22.28-67.69c-0.71-2.12-2.68-4.87-0.76-6.5c2.28-1.93,4.54,0.87,6.57,2.03
		c8.13,4.65,7.97,4.65,12.48-3.46c5.09-9.17,9.95-18.46,15.1-27.59c2.76-4.88,3.94-5.06,8.66-2c6.01,3.89,11.9,7.96,17.89,11.89
		c4.39,2.87,4.77,2.75,5.75-2.11c4.92-24.49,9.74-49,14.78-73.46c0.75-3.63-0.9-5.02-3.64-6.56
		c-17.99-10.13-29.28-25.21-33.39-45.58c-6.1-30.26,11.07-61.15,38.82-73.06c4.18-1.79,8.67-2.09,12.9-3.53c8.33,0,16.67,0,25,0
		c1.31,1.51,3.24,1.53,4.96,1.95c10.98,2.67,20.04,8.69,28.36,16.05c1.38,1.22,2.05,2.71,1.59,4.45
		c-1.83,7.01-3.75,13.99-5.75,21.42c-19.05-30.27-50.01-28.98-67.32-16.56C90.62,42.11,85.01,68.05,97.57,89.1
		c11.06,18.55,37.02,29.18,63.81,14.16c-1.74,6.67-3.26,12.65-4.87,18.61c-11.45,42.47-22.94,84.93-34.39,127.39
		c-13.91,51.6-27.81,103.2-41.66,154.82c-0.35,1.3-1.62,2.66-0.27,4.11c0.45,0.64,0.47,1.33,0.27,2.05
		c-0.98,1.67-1.29,3.51-1.27,5.43C78.2,421.74,76.97,427.73,73.18,432.81z"/>
	<path class="st1" d="M73.18,432.81c0.88-6.05,4.77-11.27,4.85-17.55c0.78-1.67,0.82-3.61,1.86-5.19c0.1-0.63,0.2-1.26,0.3-1.89
		c5.13-8.62,7.34-18.38,10.62-27.7c30.89-87.98,61.64-176.01,92.33-264.06c1.48-4.24,3.61-7.37,7.29-10.13
		c15.01-11.3,21.01-30.52,15.55-48.67c-0.7-2.34-0.81-4.37,0.07-6.7c2.46-6.52,4.68-13.13,7.22-20.34
		c11.57,14.92,16.02,31.27,13.33,49.13c-3.6,23.89-16.94,40.81-39.09,50.53c-3.01,1.32-3.87,2.82-3.46,5.96
		c3.39,26.25,6.71,52.51,9.86,78.78c0.43,3.56,1.5,3.23,3.93,1.83c7.79-4.49,15.71-8.74,23.46-13.31c2.5-1.47,3.54-1.15,4.7,1.5
		c5.22,11.88,10.84,23.59,15.86,35.56c1.72,4.11,3.33,4.38,6.75,2.16c3.02-1.97,6.37-3.42,9.58-5.1c0.37,0.27,0.73,0.53,1.1,0.8
		c-10.15,24.7-20.29,49.4-30.44,74.1c0.33,0.21,0.67,0.41,1,0.62c17.54-19.23,35.08-38.46,52.63-57.69c0.38,0.2,0.76,0.4,1.14,0.6
		c-14.92,45.26-29.85,90.53-44.77,135.79c-0.24,0.81-0.35,1.62,0.03,2.42c0.06-0.72,0.67-0.93,1.17-1.24
		c8.33-11.33,16.66-22.65,24.99-33.98c2.54,0.23,1.2,1.81,1.03,2.98c-2.04,24.56-4.18,49.1-6.03,73.68
		c-0.27,3.58-1.92,3.93-4.72,4.03c-21.97,0.78-43.93,1.62-65.89,2.5c-11.48,0.46-23,0.5-34.41,1.64c-17.41,1.74-34.1-2.1-50.92-5.31
		C93.8,436.61,83.49,434.73,73.18,432.81z"/>
	<path class="st2" d="M240.04,393.04c-0.49,1.31-1.08,2.54-2.65,3.2c0.09-1.69,0.3-3.18,1.44-4.38
		C239.24,392.25,239.64,392.65,240.04,393.04z"/>
	<path class="st3" d="M266.07,362.04c-0.53-0.93,0.31-2.33-1.03-2.98c0.26-0.63,0.89-1.24,1.34-0.73
		C267.43,359.54,267.04,360.87,266.07,362.04z"/>
	<path class="st4" d="M36.03,378.95c1.04,0.98,1.49,2.33,0.54,3.31c-0.55,0.57-1.21-0.57-1.49-1.32
		C35.87,380.5,35.96,379.73,36.03,378.95z"/>
	<path class="st5" d="M79.89,410.08c0.35,2.08-0.39,3.76-1.86,5.19C77.98,413.3,77.6,411.21,79.89,410.08z"/>
</g>
</svg>
