<?xml version="1.0" encoding="utf-8"?>
<!-- Generator: Adobe Illustrator 23.0.1, SVG Export Plug-In . SVG Version: 6.00 Build 0)  -->
<svg version="1.1" id="Слой_1" xmlns="http://www.w3.org/2000/svg" xmlns:xlink="http://www.w3.org/1999/xlink" x="0px" y="0px"
	 viewBox="0 0 209 163" style="enable-background:new 0 0 209 163;" xml:space="preserve">
<style type="text/css">
	.st0{fill:#FECF94;}
	.st1{fill:#FE8700;}
	.st2{fill:#FE9002;}
	.st3{fill:#FEF1E1;}
	.st4{fill:#FEEEDB;}
	.st5{fill:#FE8900;}
	.st6{fill:#FE8800;}
</style>
<g>
	<path class="st0" d="M157,1c3,0,6,0,9,0c1.7,2.72-0.44,4.37-1.85,6.08c-5.51,6.69-11.13,13.28-16.78,19.85
		c-0.93,1.08-2.18,2-2.54,4.09c7.41-0.56,14.45-1.55,21.48-2.46c12.26-1.59,12.86-1.5,17.89,9.68c3.21,7.14,6.62,14.19,9.8,21.35
		c3.15,7.11,2.49,8.93-5.01,11.25c-19.57,6.07-39.13,12.18-58.71,18.22c-22.92,7.07-45.77,14.39-68.77,21.2
		c-8.11,2.4-16.22,4.8-24.33,7.21c-0.96,0.22-1.84,0.69-2.79,0.93c-2.37,0.53-4.48,1.64-6.47,3.02c-4.38,1.83-8.79,3.49-13.67,2.1
		c-1.78-2.48,0.1-4.44,1.1-6.37c4.27-8.26,7.76-16.86,12.34-25.83c-5.32,0.8-9.7,2.29-14.19,3.21c-1.94,0.4-4.11,1.17-5.66-0.56
		c-1.73-1.92-0.7-4.12,0.2-6.09c8.14-17.86,16.29-35.71,24.67-53.46c3.1-6.56,3.89-6.93,11.26-6.25c8.74,0.8,17.44,2.01,26.85,3.14
		c-2.64-4.47-5.89-7.53-8.73-10.88c-3.87-4.57-7.68-9.19-11.54-13.76C49.24,5.08,47.33,3.48,49,1c3,0,6,0,9,0
		c15.71,1.54,30.97,5.39,46.28,8.96c2.13,0.5,4.3,0.5,6.43,0C126.03,6.39,141.29,2.54,157,1z"/>
	<path class="st1" d="M14.11,123.13c4.66-1.11,9.33-2.22,13.99-3.33c1.83-2.24,4.87-0.97,6.98-2.39c1.51-0.4,3.05-0.71,4.5-1.33
		c18.76-4.95,37.65-9.37,56.61-13.51c31.66-6.9,63.29-13.96,94.93-20.95c8.32-1.84,10-0.81,12.86,7.4c1.64,4.7,3.77,9.24,4.75,14.16
		c1.17,8.68,0.63,9.1-7.65,6.09c-3.44-1.25-6.88-2.48-10.41-3.46c-0.35-0.1-0.66,0-1.11,0.36C195.77,124.62,205.08,142,210,161
		c0.5,2.5-0.5,3.5-3,3c-0.42-0.43-0.84-0.85-1.26-1.28c-2.19-1.79-4.99-2-7.49-2.1c-14.24-0.54-28.39-2.12-42.57-3.3
		c-13.83-1.15-27.66-2.34-41.49-3.55c-10.04-0.88-20.12-1.61-30.16-2.46c-9.71-0.82-19.44-1.63-29.14-2.54
		c-9.72-0.91-19.51-1.48-29.25-2.39c-7.52-0.7-15.26-0.01-22.52-2.87c-0.44-0.49-0.99-1.12-0.8-1.73
		C4.61,134.54,7.52,127.66,14.11,123.13z"/>
	<path class="st2" d="M112.02,154.86c-14.47-0.9-28.93-1.86-43.31-3.73c0.77-0.97,1.68-0.51,1.68-0.51
		c-1.52-0.22-3.94-0.4-6.37,0.24c-6.48-0.17-12.94-0.54-19.32-1.72c0.08-0.14,0.22-0.41,0.24-0.4c0.51,0.2,0.54-0.33,0.31-0.29
		c-2.07,0.32-4.2-0.4-6.22,0.39c-2.16,0.19-4.3,0.21-6.33-0.7c0.18,0.64-0.27-0.78,0.28-0.41c0.34,0.23,0.5-0.33,0.47-0.32
		c-2.12,0.43-4.33-0.38-6.42,0.43c-2.16,0.18-4.3,0.22-6.33-0.7c0.19,0.64-0.28-0.77,0.28-0.41c0.35,0.23,0.5-0.33,0.46-0.32
		c-2.12,0.43-4.32-0.38-6.41,0.43C10.35,146.56,5.68,146.28,1,146c0-1,0-2,0-3c0.67-0.32,1.35-0.64,2.02-0.96
		c7.26,2.8,15,2.02,22.5,2.85c14.96,1.66,29.98,2.73,44.98,3.95c9.73,0.8,19.49,1.36,29.22,2.18c14.17,1.19,28.33,2.57,42.51,3.77
		c9.57,0.81,19.15,1.41,28.72,2.22c10.88,0.92,21.74,2.01,32.62,2.92c2.15,0.18,3.56,0.72,3.4,3.17
		c-12.77-1.07-25.55-2.13-38.32-3.23c-1.31-0.11-2.59-0.5-3.88-0.76c-1.51-1.22-3.13-0.58-4.73-0.26
		c-14.46-0.91-28.92-1.86-43.3-3.73c0.77-0.9,1.71-0.65,2.31-0.5C116.93,154.54,114.47,154.15,112.02,154.86z"/>
	<path class="st3" d="M35.1,118.05c-2.33,0.58-4.67,1.17-7,1.75c1.22-2.8,3.82-2.11,6.03-2.41
		C34.59,117.41,34.91,117.63,35.1,118.05z"/>
	<path class="st4" d="M35.1,118.05c-0.32-0.22-0.65-0.44-0.97-0.66c0.68-0.42,1.35-0.83,2.03-1.25c0.79,0.94,1.94,0.71,2.96,0.93
		C37.98,118.19,36.5,117.95,35.1,118.05z"/>
	<path class="st5" d="M15.03,146.84c2.06-1.43,4.39-0.67,6.61-0.79c0.4-0.02,1.63-0.1,0.47,0.83c-0.33,0.26-0.93,0.19-1.41,0.27
		C18.81,147.04,16.92,146.94,15.03,146.84z"/>
	<path class="st5" d="M27.03,147.84c2.06-1.43,4.39-0.67,6.61-0.79c0.4-0.02,1.63-0.1,0.47,0.83c-0.33,0.26-0.93,0.19-1.41,0.27
		C30.81,148.04,28.92,147.94,27.03,147.84z"/>
	<path class="st5" d="M39.03,148.84c2.06-1.43,4.39-0.67,6.61-0.79c0.4-0.02,1.63-0.11,0.47,0.83c-0.33,0.27-0.93,0.19-1.41,0.27
		C42.81,149.04,40.92,148.94,39.03,148.84z"/>
	<path class="st6" d="M64.02,150.87c1.72-1.35,3.73-0.75,5.63-0.82c0.38-0.01,1.62-0.1,0.47,0.82c-0.33,0.26-0.93,0.19-1.41,0.26
		C67.15,151.05,65.59,150.96,64.02,150.87z"/>
	<path class="st6" d="M112.02,154.86c1.71-1.34,3.72-0.75,5.62-0.81c0.36-0.01,1.62-0.13,0.49,0.82c-0.32,0.27-0.93,0.18-1.41,0.26
		C115.16,155.04,113.59,154.95,112.02,154.86z"/>
	<path class="st6" d="M160.03,158.86c1.78-1.25,3.72-1.02,5.66-0.58c0.63,0.14,0.46,0.9-0.05,0.48c-0.12-0.1-0.58,0.22-0.88,0.35
		C163.18,159.03,161.6,158.95,160.03,158.86z"/>
</g>
</svg>
