<?xml version="1.0" encoding="utf-8"?>
<!-- Generator: Adobe Illustrator 23.0.1, SVG Export Plug-In . SVG Version: 6.00 Build 0)  -->
<svg version="1.1" id="Слой_1" xmlns="http://www.w3.org/2000/svg" xmlns:xlink="http://www.w3.org/1999/xlink" x="0px" y="0px"
	 viewBox="0 0 255 458" style="enable-background:new 0 0 255 458;" xml:space="preserve">
<style type="text/css">
	.st0{opacity:0.5;fill:#666666;}
	.st1{fill:#535353;}
	.st2{fill:#FEFEFE;}
</style>
<g>
	<path class="st0" d="M1,286c8.45,12.15,17,24.22,25.28,36.48c2.23,3.3,3.47,3.89,6.27,0.47c20.9-25.5,42.11-50.74,62.84-76.37
		c3.69-4.56,8.17-5.87,13.18-6.95c3.33-0.72,7.79-3.59,9.68-1.65c1.93,1.99-0.9,6.41-1.79,9.71c-14.36,53.26-28.8,106.5-43.2,159.75
		c-0.21,0.79-0.21,1.64-0.31,2.47c0.08,2.79-0.54,5.52-0.66,8.29c-0.83,6.54-3.49,12.5-5.85,18.56c-2.6,1.04-3.01-1.41-3.93-2.67
		c-5.03-6.85-10.18-13.62-14.93-20.66c-2.21-3.28-4.2-3.35-7.4-1.45c-9.47,5.59-19.02,11.03-28.6,16.44
		c-5.57,3.15-6.94,2.21-7.93-4.24c-1.18-7.7-1-15.55-2.66-23.19c0-9.67,0-19.33,0-29c2.9-0.55,4.53,1.6,6.43,3.1
		c2.18,1.73,3.83,4.13,6.56,5.29c1.13-1.69,0.25-3.28,0.01-4.82c-3.64-23.31-8.17-46.48-11.64-69.82c-0.48-3.25-0.23-6.6-1.35-9.75
		C1,292.67,1,289.33,1,286z"/>
	<path class="st0" d="M131,1c1.63,1.72,3.95,1.44,5.96,1.94c14.51,3.65,26.6,11.1,36.26,22.56c1.68,2,2.3,3.94,1.64,6.39
		c-7.38,27.26-14.76,54.52-22.16,81.78c-0.17,0.62-0.57,1.18-1.22,2.47c-13.45-27.43-22.53-55.77-30.84-84.86
		c-1.54,5.6-3.04,11.21-4.63,16.79c-7.3,25.48-16.26,50.32-28.33,73.99c-2.04,4-3.53,4.05-6.82,1.43
		c-21.72-17.29-31.36-39.75-26.19-66.94c5.36-28.21,23.08-46.09,50.95-53.66C107.13,2.47,109,2.69,110,1c1.67,0,3.33,0,5,0
		c3.67,0.82,7.33,0.82,11,0C127.67,1,129.33,1,131,1z"/>
	<path class="st1" d="M126,1c-3.67,1.61-7.33,1.63-11,0C118.67,1,122.33,1,126,1z"/>
	<path class="st2" d="M247.15,394.07c-3.76,16.85-7.52,33.71-11.42,51.15c-10.85-7.56-21.51-14.59-31.69-22.27
		c-4.35-3.28-6.46-2.69-9.76,1.35c-8.4,10.31-17.42,20.11-26.06,30.24c-1.92,2.25-3.87,3.04-6.84,2.9
		c-15.44-0.7-30.97,0.66-46.35-1.43c-13.17-1.79-26.25-4.27-39.38-6.37c-2.06-0.33-3.16-1.49-4.11-3.18
		c-1.8-3.18-3.74-6.28-5.62-9.42c-0.16-5.8,3.77-10.39,4.75-15.88c0.17-0.93,0.68-1.79,0.35-2.79c0.64-2.61,1.33-5.19,3.03-7.36
		c7.35-19.55,14.77-39.08,22.04-58.66C109.14,317.19,122.16,282,135,246.75c1.5-4.1,2.85-4.98,7.42-3.81
		c12.29,3.14,20.48,10.18,27.38,20.9c16.48,25.59,34.21,50.38,51.42,75.47c1.74,0,2.2-1.45,2.96-2.39
		c9.29-11.51,19.28-22.46,28.06-34.4c0.3-0.41,1.18-0.41,1.79-0.59c-8.35,32.23-16.71,64.47-25.29,97.57
		c5.91-4.28,11.28-7.88,16.28-11.93c2.39-1.94,4.34-2.22,6.77-0.63c-0.77,1.11-2.4,1.41-2.73,2.93
		C248.33,391.22,247.38,392.49,247.15,394.07z"/>
	<path class="st0" d="M121.47,55.1c5.03,19.61,10.92,38.65,18.47,57.14c1.38,3.39,2.38,7.05,4.37,10.05
		c3.89,5.89,3.19,11.56,1.31,17.93c-4.24,14.34-7.82,28.87-11.77,43.29c-0.55,2-0.58,4.28-2.47,6.06c-2.61-2.86-5.32-5.56-7.69-8.53
		c-2.02-2.52-3.37-2.24-5.42,0.06c-16.05,18.04-32.21,35.99-48.35,53.96c-5.34,5.95-10.73,11.86-16.07,17.81
		c-1.58,1.77-2.83,3.07-3.81-0.53c-3.72-13.64-7.43-27.28-11.46-40.83c-0.9-3.04,0.79-4.26,2.31-5.93
		c22.74-24.82,42.52-51.68,56.51-82.48c9.59-21.12,16.64-43.13,22.49-65.54C120.09,56.82,119.94,55.9,121.47,55.1z"/>
	<path class="st2" d="M206.34,267.62c-13.15-17.61-25.7-34.39-38.23-51.18c-4.18-5.6-8.33-11.23-12.52-16.83
		c-1.1-1.47-2.1-2.65-1.26-4.88c6.68-17.71,13.18-35.49,19.78-53.23c0.21-0.56,0.79-0.98,1.3-1.57
		c11.42,28.55,27.13,54.32,45.72,78.38c1.94,2.52,2.44,4.39,1.2,7.51C216.89,239.37,211.85,253.09,206.34,267.62z"/>
	<path class="st2" d="M211.62,40.05c7.26,11.65,10.31,23.64,9.86,36.29c-0.88,24.59-12.03,43.49-32.77,56.81
		c-3.38,2.17-5.07,2.42-6.7-1.94c-1.49-3.98-1.61-7.31-0.09-11.34C191.86,93.63,201.53,67.27,211.62,40.05z"/>
</g>
</svg>
