<?xml version="1.0" encoding="utf-8"?>
<!-- Generator: Adobe Illustrator 23.0.1, SVG Export Plug-In . SVG Version: 6.00 Build 0)  -->
<svg version="1.1" id="Слой_1" xmlns="http://www.w3.org/2000/svg" xmlns:xlink="http://www.w3.org/1999/xlink" x="0px" y="0px"
	 viewBox="0 0 198 178" style="enable-background:new 0 0 198 178;" xml:space="preserve">
<style type="text/css">
	.st0{opacity:0.5;fill:#666666;}
	.st1{fill:#FEFEFE;}
	.st2{fill:#EDEDED;}
	.st3{fill:#F3F3F3;}
	.st4{fill:#FCFCFC;}
</style>
<g>
	<path class="st0" d="M54,1c1.33,0,2.67,0,4,0c29.67,4.75,59.33,4.75,89,0c1.33,0,2.67,0,4,0c1.42,2.09-0.02,3.84-0.77,5.59
		c-4.78,11.17-10.37,21.97-15.14,33.15c-0.38,0.89-1.06,1.71-0.77,3.19c4.46,0.12,9.01-0.41,13.58,0.28
		c17.23,2.61,28.46,12.78,35.88,27.85c1.61,3.27,3.13,6.62,4.21,10.14c1.64,5.36,0.84,6.91-4.58,8.17
		c-13.62,3.17-27.28,6.13-40.93,9.15c-34.28,7.6-68.54,15.29-102.84,22.79c-1.8,0.13-3.48,0.85-5.27,1.01
		c-2.9,0.67-6.01,0.71-8.42,2.83c-5.73,1.72-11.54,2.81-17.56,2.32c-1.68-1.73-0.86-3.84-0.58-5.68
		c2.59-16.82,5.82-33.46,12.69-49.21c9.2-21.06,27.71-31.95,50.88-29.25c-3.27-8.69-7.47-16.71-11.18-24.94
		c-1.92-4.25-4.09-8.38-5.81-12.73C53.78,4.17,52.73,2.67,54,1z"/>
	<path class="st1" d="M8.21,127.2c5.79-1.93,12.1-1.07,17.84-3.31c3.5-1.67,7.43-1.42,11.07-2.45c2.13-0.68,4.48-0.23,6.52-1.33
		c29.52-5.06,59.19-9.19,88.77-13.82c16.44-2.58,32.91-4.98,49.36-7.51c10.1-1.55,10.62-1.01,12.37,8.93
		c2.54,14.45,3.95,29.01,3.83,43.69c-0.05,6.16,0.17,12.3,0.51,18.44c-0.59,3.37,1.4,7.12-1.48,10.16c-1,0-2,0-3,0
		c-1.88-1.38-4.35,0.42-6.2-1.15c1.17-2.7,3.83-0.47,5.46-1.64c-4.98,0.84-9.96,0.94-14.97,0.2c-13.45-0.52-26.83-1.85-40.25-2.79
		c-10.93-0.76-21.88-1.39-32.81-2.21c-13.74-1.03-27.49-2.07-41.24-2.69c-10.22-0.46-20.52-2.92-30.8-0.28
		c-9.18,0.58-18.25-0.84-27.38-1.33c-2.85-0.64-4.83-1.99-4.32-5.34c-0.01-0.55,0.03-1.1,0.11-1.65c0.59-1.86,0.29-3.79,0.41-5.68
		c0.91-7.56,2.23-15.05,3.66-22.53C6.09,130.86,6.21,128.59,8.21,127.2z"/>
	<path class="st2" d="M41.03,168.83c-2.83,0.14-5.66,0.31-8.4-0.7c11.73-2.29,23.36-0.09,35.03,0.72
		c5.94,0.41,11.88,0.51,17.83,0.98c17.31,1.37,34.67,1.92,51.98,3.26c13.83,1.07,27.64,2.43,41.52,2.92
		c0.33,0.43,0.32,0.84-0.03,1.25c-1.6,0.6-3.37-0.25-4.94,0.6c-16.58-1.05-33.17-2.06-49.74-3.16c-24.05-1.59-48.09-3.22-72.14-4.87
		c-1.47-0.1-2.92-0.46-4.38-0.7C45.57,167.91,43.29,168.51,41.03,168.83z"/>
	<path class="st3" d="M179,176.99c0-0.33,0-0.65,0-0.98c5.27,0.97,10.61,1.12,16.71,0.98c-2.86,1.92-5.67-0.04-7.67,1.87
		c-2.72,0.07-5.45,0.35-8.08-0.69C179.67,177.74,179.12,177.54,179,176.99z"/>
	<path class="st1" d="M41.03,168.83c2.22-1.41,4.59-0.87,6.94-0.53c0.04,0.01,0.09,0.3,0.06,0.43c-0.04,0.15-0.17,0.27-0.26,0.41
		C45.52,169.04,43.27,168.94,41.03,168.83z"/>
	<path class="st4" d="M179,176.99c0.32,0.39,0.64,0.78,0.96,1.17c-1.98-0.1-3.95-0.2-5.93-0.3
		C175.47,176.4,177.33,177.22,179,176.99z"/>
</g>
</svg>
