<?xml version="1.0" encoding="utf-8"?>
<!-- Generator: Adobe Illustrator 23.0.1, SVG Export Plug-In . SVG Version: 6.00 Build 0)  -->
<svg version="1.1" id="Слой_1" xmlns="http://www.w3.org/2000/svg" xmlns:xlink="http://www.w3.org/1999/xlink" x="0px" y="0px"
	 viewBox="0 0 246 451" style="enable-background:new 0 0 246 451;" xml:space="preserve">
<style type="text/css">
	.st0{fill:#FEFEFE;}
	.st1{fill:#E8E8E8;}
	.st2{fill:#D7D7D7;}
</style>
<g>
	<path class="st0" d="M241.15,289.14c-4.57,26.97-9.13,53.94-13.7,80.91c-0.8,4.73-1.6,9.46-2.55,15.14
		c6.08-5.1,11.54-9.68,16.99-14.26c2.11-0.21,1.94,1.51,2.34,2.75c-0.41,12.64-2.79,25.07-4.26,37.6c-0.52,4.45-1.14,8.9-1.68,13.35
		c-0.73,5.99-2.49,6.89-7.85,3.86c-9.26-5.23-18.47-10.57-27.73-15.81c-5.34-3.02-5.34-3.06-9.09,2.05
		c-7.37,10.06-14.56,20.24-21.93,30.3c-2.55,3.48-5.58,5.1-9.99,5.47c-8.23,0.69-16.54,0.04-24.72,1.49c-11.33,0-22.67,0-34,0
		c-7.65-1.76-15.49-0.67-23.22-1.55c-4.01-0.46-6.83-1.9-9.16-5.06c-7.6-10.3-14.96-20.79-22.55-31.1c-3.44-4.67-3.5-4.65-8.39-1.87
		c-9.25,5.25-18.48,10.57-27.72,15.83c-5.91,3.37-7.35,2.5-8.3-4.11C2.35,415.12,2.11,406.02,1,397c0-8.33,0-16.67,0-25
		c6.98,0.99,9.82,7.1,14.07,10.32C10.88,353.55,4.34,324.03,1,294c0-2.67,0-5.33,0-8c8.35,11.98,16.7,23.96,25.06,35.94
		c1.03,1.48,2.07,2.94,3.3,4.68c18.88-22.82,37.45-45.27,56.03-67.72c1.06-1.28,2.29-2.46,3.16-3.87
		c6.31-10.24,15.32-15.69,27.31-17.57c5.48-0.86,10.07,0.73,15.07,1.4c8.25,1.1,13.91,5.37,19.11,11.84
		c19.41,24.15,39.35,47.86,59.1,71.73c1.06,1.28,2.17,2.51,3.56,4.12c9.18-13.32,18.22-26.44,27.27-39.56
		C241.88,286.89,241.49,288.03,241.15,289.14z"/>
	<path class="st0" d="M129,1c3.63,0.93,7.31,1.68,10.87,2.81c26.3,8.33,42.91,26.03,47.81,53.06c4.95,27.29-4.78,49.66-26.56,66.87
		c-3.26,2.58-4.73,2.49-6.75-1.49c-14.43-28.49-24.66-58.47-32.41-89.37c-0.15-0.61-0.34-1.21-0.51-1.8
		c-1.75,0.05-1.29,1.38-1.5,2.2c-7.82,30.7-17.96,60.54-32.3,88.88c-2.04,4.03-3.45,3.87-6.73,1.43
		c-21.97-16.35-32.21-44.34-25.69-70.92c6.5-26.5,28.56-46.62,55.66-50.76c0.78-0.12,1.7,0.1,2.09-0.91c0.67,0,1.33,0,2,0
		c4,0.85,8,0.85,12,0C127.67,1,128.33,1,129,1z"/>
	<path class="st1" d="M247,374c-1.29,0.1-2.58,0.2-3.87,0.3c-0.39-1.13,0.06-2.57-1.24-3.36c1.02-2.44,3.32-1.51,5.11-1.94
		C247,370.67,247,372.33,247,374z"/>
	<path class="st2" d="M127,1c-4,1.61-8,1.64-12,0C119,1,123,1,127,1z"/>
	<path class="st0" d="M120.57,54.91c6.63,23.09,13.88,45.66,23.63,67.36c13.99,31.14,33.89,58.29,56.94,83.25
		c2.15,2.32,2.87,4.19,1.93,7.36c-4.16,14.01-8,28.1-11.97,42.22c-2.13-0.34-2.79-2.02-3.83-3.17
		c-21.05-23.4-42.13-46.78-63.01-70.33c-2.75-3.1-4-2.82-6.58,0.08c-20.8,23.41-41.75,46.67-62.67,69.96
		c-1.1,1.22-2.24,2.4-3.88,4.15c-3.13-11.05-5.27-21.85-9.29-31.9c-4.3-10.75-1.99-17.89,5.92-26.41
		c37.18-40.06,59.74-87.95,72.27-140.83C120.18,56.06,120.39,55.49,120.57,54.91z"/>
</g>
</svg>
