<?xml version="1.0" encoding="utf-8"?>
<!-- Generator: Adobe Illustrator 23.0.1, SVG Export Plug-In . SVG Version: 6.00 Build 0)  -->
<svg version="1.1" id="Слой_1" xmlns="http://www.w3.org/2000/svg" xmlns:xlink="http://www.w3.org/1999/xlink" x="0px" y="0px"
	 viewBox="0 0 197 166" style="enable-background:new 0 0 197 166;" xml:space="preserve">
<style type="text/css">
	.st0{fill:#FEFEFE;}
	.st1{fill:#C2C2C2;}
	.st2{fill:#C9C9C9;}
	.st3{fill:#D0D0D0;}
	.st4{fill:#DADADA;}
	.st5{fill:#E1E1E1;}
	.st6{fill:#E7E7E7;}
	.st7{fill:#EEEEEE;}
	.st8{fill:#F6F6F6;}
	.st9{fill:#F0F0F0;}
	.st10{fill:#E6E6E6;}
	.st11{fill:#DCDCDC;}
	.st12{fill:#D1D1D1;}
	.st13{fill:#C7C7C7;}
	.st14{fill:#BDBDBD;}
	.st15{fill:#EBEBEB;}
	.st16{fill:#D6D6D6;}
	.st17{fill:#CCCCCC;}
	.st18{fill:#D5D5D5;}
</style>
<g>
	<path class="st0" d="M23,167c-7.33,0-14.67,0-22,0c-0.98-1.86-0.26-3.87-0.48-5.8c0-1.65,0-3.3,0-4.95
		c1.3-28.21,4.65-56.12,15.47-82.46c7.02-17.09,19.36-28.45,38.57-30.8c4.12-0.5,8.2-0.23,12.81,0.37
		c-3.57-9.19-7.8-17.44-11.65-25.86c-1.8-3.93-3.75-7.8-5.35-11.82C49.76,4.17,48.75,2.66,50,1c1.33,0,2.67,0,4,0
		c29.67,4.75,59.33,4.75,89,0c1.33,0,2.67,0,4,0c1.43,2.09-0.02,3.83-0.77,5.58c-4.84,11.31-10.49,22.25-15.33,33.56
		c-0.38,0.88-0.98,1.7-0.79,3.12c4.21-0.46,8.29-0.76,12.41-0.25c19.19,2.36,31.21,13.85,38.56,30.78
		c7.62,17.55,10.52,36.33,13.26,55.11c1.32,9.06,1.6,18.18,2.15,27.28c0,1.66,0,3.31,0,4.97c-0.22,1.95,0.5,3.97-0.48,5.85
		c-0.33,0-0.67,0-1,0c-3.05-1.92-6.43-0.61-9.64-1c-4.15,0-8.29,0-12.43,0c-4.28,0-8.56,0-12.83,0c-4.28,0-8.56,0-12.84,0
		c-2.13,0-4.27,0-6.4,0c-4.28,0-8.56,0-12.85,0c-4.3,0-8.6,0-12.9,0c-4.26,0-8.52,0-12.77,0c-2.38,0-4.76,0-7.14,0
		c-2.05,0-4.1,0-6.14,0c-2.32,0-4.64,0-6.96,0c-2.02,0-4.05,0-6.07,0c-2.31,0-4.62,0-6.93,0c-2.02,0-4.04,0-6.07,0
		c-2.31,0-4.62,0-6.93,0c-2.02,0-4.04,0-6.06,0c-2.3,0-4.61,0-6.91,0c-1.99,0-3.98,0-5.98,0c-2.2,0-4.4,0-6.6,0
		C28.02,166.32,25.31,165.18,23,167z"/>
	<path class="st1" d="M102.99,165.1c4.33,0,8.66,0,12.99,0.01c0.61,0.63,0.6,1.26,0.02,1.9c-4.33,0-8.67,0-13,0
		C102.41,166.37,102.41,165.73,102.99,165.1z"/>
	<path class="st2" d="M116,167c-0.01-0.63-0.01-1.27-0.02-1.9c4.33,0,8.67-0.01,13-0.02c0.61,0.63,0.6,1.27,0.02,1.91
		C124.67,167,120.33,167,116,167z"/>
	<path class="st3" d="M129,167c0-0.64-0.01-1.28-0.02-1.91c4.33,0,8.67,0,13,0c0.6,0.64,0.6,1.27,0.01,1.92
		C137.67,167,133.33,167,129,167z"/>
	<path class="st4" d="M147.99,165.06c4.33,0,8.66-0.01,13-0.01c0.6,0.65,0.6,1.3,0.01,1.95c-4.33,0-8.67,0-13,0
		C147.41,166.36,147.41,165.71,147.99,165.06z"/>
	<path class="st5" d="M161,167c0-0.65-0.01-1.3-0.01-1.95c4.33,0,8.67-0.01,13-0.02c0.6,0.65,0.6,1.31,0.01,1.97
		C169.67,167,165.33,167,161,167z"/>
	<path class="st6" d="M174,167c0-0.66-0.01-1.31-0.01-1.97c4.33,0,8.67-0.01,13-0.01c0.6,0.66,0.6,1.32,0.01,1.98
		C182.67,167,178.33,167,174,167z"/>
	<path class="st7" d="M187,167c0-0.66-0.01-1.32-0.01-1.98c2.96,0.85,6.73-1.98,9.01,1.98C193,167,190,167,187,167z"/>
	<path class="st8" d="M24,167c1.48-3.66,4.67-1.34,7-2c0.59,0.67,0.59,1.33,0,2C28.67,167,26.33,167,24,167z"/>
	<path class="st9" d="M31,167c0-0.67,0-1.33,0-2c2.33,0,4.67,0.01,7,0.01c0.57,0.66,0.57,1.33-0.01,1.99C35.67,167,33.33,167,31,167
		z"/>
	<path class="st10" d="M44.01,165.02c2.33,0,4.67,0,7,0.01c0.57,0.66,0.57,1.32-0.01,1.97c-2.33,0-4.67,0-7,0
		C43.42,166.34,43.42,165.68,44.01,165.02z"/>
	<path class="st11" d="M57.01,165.05c2.33,0,4.67,0.01,7,0.01c0.57,0.65,0.57,1.3-0.01,1.94c-2.33,0-4.67,0-7,0
		C56.42,166.35,56.42,165.7,57.01,165.05z"/>
	<path class="st12" d="M70.01,165.08c2.33,0,4.67,0.01,7,0.01c0.57,0.64,0.57,1.28-0.01,1.91c-2.33,0-4.67,0-7,0
		C69.42,166.36,69.42,165.72,70.01,165.08z"/>
	<path class="st13" d="M83.01,165.11c2.33,0,4.67,0,7,0c0.57,0.63,0.56,1.26-0.01,1.89c-2.33,0-4.67,0-7,0
		C82.42,166.37,82.42,165.73,83.01,165.11z"/>
	<path class="st14" d="M102.99,165.1c0,0.63,0.01,1.27,0.01,1.9c-2.33,0-4.67,0-7,0c-0.57-0.63-0.58-1.25,0.01-1.87
		C98.34,165.12,100.67,165.11,102.99,165.1z"/>
	<path class="st15" d="M44.01,165.02c0,0.66,0,1.32-0.01,1.98c-2,0-4,0-6,0c0-0.66,0-1.32,0.01-1.99
		C40.01,165.02,42.01,165.02,44.01,165.02z"/>
	<path class="st5" d="M57.01,165.05c0,0.65-0.01,1.3-0.01,1.95c-2,0-4,0-6,0c0-0.66,0-1.31,0.01-1.97
		C53.01,165.04,55.01,165.04,57.01,165.05z"/>
	<path class="st16" d="M70.01,165.08c0,0.64-0.01,1.28-0.01,1.92c-2,0-4,0-6,0c0-0.65,0.01-1.29,0.01-1.94
		C66.01,165.07,68.01,165.07,70.01,165.08z"/>
	<path class="st17" d="M83.01,165.11c0,0.63-0.01,1.26-0.01,1.89c-2,0-4,0-6,0c0-0.64,0.01-1.28,0.01-1.91
		C79.01,165.09,81.01,165.1,83.01,165.11z"/>
	<path class="st1" d="M96.01,165.13c0,0.62-0.01,1.25-0.01,1.87c-2,0-4,0-6,0c0-0.63,0.01-1.26,0.01-1.89
		C92.01,165.12,94.01,165.13,96.01,165.13z"/>
	<path class="st18" d="M147.99,165.06c0,0.65,0.01,1.29,0.01,1.94c-2,0-4,0-6,0c0-0.64-0.01-1.28-0.01-1.92
		C143.99,165.08,145.99,165.07,147.99,165.06z"/>
</g>
</svg>
