<?xml version="1.0" encoding="utf-8"?>
<!-- Generator: Adobe Illustrator 23.0.1, SVG Export Plug-In . SVG Version: 6.00 Build 0)  -->
<svg version="1.1" id="Слой_1" xmlns="http://www.w3.org/2000/svg" xmlns:xlink="http://www.w3.org/1999/xlink" x="0px" y="0px"
	 viewBox="0 0 640 378" style="enable-background:new 0 0 640 378;" xml:space="preserve">
<style type="text/css">
	.st0{fill:#FEFEFE;}
	.st1{fill:#BEBEBE;}
	.st2{fill:#EFEFEF;}
	.st3{fill:#252525;}
	.st4{fill:#6A6A6A;}
	.st5{fill:#898989;}
	.st6{fill:#A5A5A5;}
	.st7{fill:#BABABA;}
	.st8{fill:#A8A8A8;}
	.st9{fill:#919191;}
	.st10{fill:#797979;}
	.st11{fill:#5E5E5E;}
	.st12{fill:#434343;}
</style>
<g>
	<path class="st0" d="M455,1c2.33,0,4.67,0,7,0c1.74,2.03,1.24,4.35,0.93,6.67c-2.76,20.63-4.44,41.32-5.69,62.12
		c-1.8,30.12,1.27,59.83,4.71,89.59c1.42,12.25,3.59,24.38,5.68,36.53c0.68,3.98,2.4,5.59,6.57,5.68
		c9.98,0.21,19.93,1.24,29.93,0.94c7.07-0.21,7.29-0.32,7.37-7.3c0.29-24.82,1.48-49.58,5.07-74.16c2.22-15.19,5.9-30.07,10.88-44.6
		c2.16-6.28,3.86-7.28,10.37-6.52c14.06,1.64,28.13,3.14,42.21,4.58c7.4,0.76,8.41,1.92,7.21,9.14c-3.94,23.67-6.74,47.48-8.47,71.4
		c-0.64,8.94-1.63,17.9-1.31,26.92c0.28,8.15-0.55,16.3-0.79,24.43c-0.51,17.3,1.1,34.59,1.04,51.91
		c-0.03,10.13,0.55,10.13,10.56,10.18c29.73,0.16,50.4,20,51.73,49.67c0.09,1.98,0.22,3.96,1,5.83c0,1.67,0,3.33,0,5
		c-0.68,0.62-0.47,1.45-0.52,2.22c0,0.6,0,1.19,0,1.79c0,0.59,0,1.19,0,1.78c0.04,0.77-0.16,1.59,0.52,2.21c0,1.33,0,2.67,0,4
		c-0.83,6-0.83,12,0,18c0,1.67,0,3.33,0,5c-0.69,0.65-0.46,1.51-0.52,2.31c0,0.63,0,1.27,0,1.9c0,0.66,0,1.32,0,1.98
		c0,0.7,0,1.4,0,2.1c0,0.75,0,1.5,0,2.26c0,0.82,0,1.64-0.04,2.47c-0.09,1.15-0.81,1.5-1.85,1.47c-211.72,0-423.44-0.01-635.15,0
		c-1,0.04-1.77-0.24-1.89-1.39c-0.05-0.82-0.04-1.64-0.04-2.46c0-0.75,0-1.51,0-2.27c0-0.7,0-1.41,0-2.12c0-0.67,0-1.34,0-2
		c0-0.64,0-1.28,0-1.92C1.46,365.53,1.7,364.66,1,364c0-1.67,0-3.33,0-5c0.83-6,0.83-12,0-18c0-1.33,0-2.67,0-4
		c0.68-0.62,0.47-1.45,0.52-2.22c0-0.6,0-1.19,0-1.79c0-0.59,0-1.19,0-1.78C1.47,330.44,1.67,329.62,1,329c0-2,0-4,0-6
		c1.04-1.82,0.94-3.83,1.01-5.82c0.97-27.02,21.62-47.64,48.7-48.64c0.83-0.03,1.67-0.03,2.5-0.03
		c10.65-0.08,10.67-0.08,11.21-10.69c0.19-3.66,0.12-7.33,0.06-10.99c-0.17-9.66,0.94-19.31,0.87-28.92
		c-0.33-44.48-2.84-88.82-10.36-132.75c-0.17-0.99-0.34-1.97-0.46-2.96c-0.64-5.41,0.4-6.89,5.95-7.49
		c14.9-1.6,29.8-3.15,44.69-4.85c5.44-0.62,7.3,0.61,9.2,6.17c5.84,17.08,9.94,34.57,12.08,52.5c2.67,22.33,3.87,44.75,4.05,67.24
		c0.05,6.34,0.44,6.57,6.87,6.79c10.51,0.37,20.95-0.77,31.43-0.99c4.02-0.08,4.92-2.4,5.53-5.64c3.54-18.67,6.07-37.48,8.06-56.37
		c1.88-17.88,3.35-35.82,3.01-53.8c-0.5-25.97-2.45-51.85-6.25-77.57C178.79,5.71,178.13,3.2,180,1c2.33,0,4.67,0,7,0
		c0.68,0.74,1.58,0.45,2.41,0.52c0.86,0,1.72,0,2.59,0c0.86,0,1.73,0,2.59,0c0.83-0.07,1.73,0.22,2.42-0.52c2,0,4,0,6,0
		c8.68,1.96,17.54,0.77,26.31,1.35c7.12,0.47,14.29,0.73,21.44,1.03c4.43,0.19,6.63,2.13,7.57,6.32
		c2.68,11.87,4.76,23.85,7.45,35.72c1.54,6.82,2.75,13.72,4.28,20.55c1.89,8.41,0.91,9.53-7.91,9.6c-3.83,0.03-7.67-0.04-11.5,0.02
		c-5.55,0.09-6,0.51-6.05,5.99c-0.07,7.16-0.02,14.33-0.02,21.49c0,42.82,0,85.64,0,128.46c0,1.5-0.02,3,0.01,4.5
		c0.12,5.84,0.54,6.35,6.25,6.37c13.66,0.06,27.33,0.07,40.99-0.01c5.89-0.03,6.55-0.68,6.57-6.7c0.08-20.33,0.02-40.65,0.03-60.98
		c0.01-17.66-0.05-35.32,0.03-52.98c0.03-7.59,1.38-8.79,8.59-6.77c8.89,2.49,17.59,2.9,26.57,0.34c8.88-2.53,9.93-1.53,9.94,7.58
		c0.03,36.16,0.01,72.31,0.01,108.47c0,1.67-0.03,3.33,0.02,5c0.16,5.44,0.66,6.03,6.1,6.06c13.5,0.07,26.99,0.04,40.49,0.02
		c6.97-0.01,7.24-0.28,7.24-7.39c0.02-50.82,0.01-101.64,0.01-152.45c0-0.83-0.05-1.67-0.02-2.5c0.13-3.18-1.45-4.48-4.55-4.49
		c-5.16-0.01-10.33,0.13-15.49-0.07c-5.71-0.22-7.02-1.62-5.88-7.08c4.05-19.41,7.88-38.86,12.14-58.22c1.3-5.92,2.3-6.21,8.62-6.83
		c14.59-1.43,29.27-0.77,43.87-1.85C436.79,1.47,437.43,1.4,438,1c2.33,0,4.67,0,7,0c0.68,0.74,1.58,0.45,2.41,0.52
		c0.86,0,1.72,0,2.59,0c0.86,0,1.73,0,2.59,0C453.41,1.45,454.32,1.74,455,1z"/>
	<path class="st1" d="M2.23,377.92C3.9,377.95,5.56,378,7.23,378c209.18,0,418.36,0,627.54,0c1.66,0,3.33-0.05,4.99-0.08
		c0.63,0.24,0.71,0.6,0.23,1.08c-212.67,0-425.33,0-638,0C1.53,378.52,1.61,378.16,2.23,377.92z"/>
	<path class="st2" d="M1,341c1.64,6,1.65,12,0,18C1,353,1,347,1,341z"/>
	<path class="st2" d="M641,359c-1.65-6-1.64-12,0-18C641,347,641,353,641,359z"/>
	<path class="st3" d="M2.23,377.92C2.16,378.28,2.08,378.64,2,379c-2.15-0.4-0.51-2.05-1-3c0.3-0.47,0.58-0.44,0.85,0.03
		C1.98,376.66,2.11,377.29,2.23,377.92z"/>
	<path class="st3" d="M640,379c-0.08-0.36-0.16-0.72-0.23-1.08c0.13-0.63,0.26-1.26,0.39-1.9c0.27-0.49,0.55-0.47,0.85-0.03
		C640.51,376.95,642.15,378.6,640,379z"/>
	<path class="st4" d="M1,329c1.26,0.23,0.95,1.14,0.83,1.96C1.58,331.46,1.3,331.45,1,331C1,330.33,1,329.67,1,329z"/>
	<path class="st4" d="M640.17,330.96c-0.12-0.82-0.43-1.72,0.83-1.96c0,0.67,0,1.33,0,2C640.7,331.47,640.42,331.44,640.17,330.96z"
		/>
	<path class="st5" d="M1,331c0.28,0.02,0.56,0,0.83-0.04c0,0.67,0.01,1.33,0.01,2c-0.25,0.5-0.53,0.51-0.84,0.05
		C1,332.33,1,331.67,1,331z"/>
	<path class="st5" d="M640.17,330.96c0.27,0.05,0.55,0.06,0.83,0.04c0,0.67,0,1.33,0,2c-0.31,0.46-0.59,0.45-0.84-0.05
		C640.16,332.29,640.17,331.62,640.17,330.96z"/>
	<path class="st6" d="M1,333c0.28,0.02,0.56,0.01,0.84-0.05c0,0.67,0,1.33,0.01,2C1.59,335.44,1.31,335.47,1,335
		C1,334.33,1,333.67,1,333z"/>
	<path class="st6" d="M640.16,332.95c0.28,0.05,0.56,0.07,0.84,0.05c0,0.67,0,1.33,0,2c-0.31,0.47-0.59,0.44-0.84-0.05
		C640.16,334.29,640.16,333.62,640.16,332.95z"/>
	<path class="st7" d="M640.16,334.95c0.28,0.05,0.56,0.06,0.84,0.05c0,0.67,0,1.33,0,2C640.08,336.58,640,335.82,640.16,334.95z"/>
	<path class="st7" d="M1,364c0.92,0.41,0.98,1.19,0.84,2.04c-0.3,0.4-0.58,0.4-0.84-0.04C1,365.33,1,364.67,1,364z"/>
	<path class="st7" d="M640.16,366.04c-0.14-0.85-0.08-1.63,0.84-2.04c0,0.67,0,1.33,0,2C640.74,366.42,640.46,366.46,640.16,366.04z
		"/>
	<path class="st8" d="M1,366c0.28-0.01,0.57,0,0.85,0.04c0,0.67,0,1.33,0,2c-0.3,0.4-0.58,0.4-0.84-0.04C1,367.33,1,366.67,1,366z"
		/>
	<path class="st8" d="M640.16,366.04c0.28-0.04,0.56-0.05,0.84-0.04c0,0.67,0,1.33,0,2c-0.26,0.42-0.54,0.46-0.84,0.04
		C640.16,367.37,640.16,366.71,640.16,366.04z"/>
	<path class="st9" d="M1,368c0.28-0.02,0.56-0.01,0.84,0.04c0,0.67-0.01,1.33-0.01,2c-0.3,0.41-0.57,0.4-0.83-0.04
		C1,369.33,1,368.67,1,368z"/>
	<path class="st9" d="M640.16,368.04c0.28-0.05,0.56-0.06,0.84-0.04c0,0.67,0,1.33,0,2c-0.26,0.45-0.54,0.44-0.83,0.04
		C640.16,369.37,640.16,368.7,640.16,368.04z"/>
	<path class="st10" d="M1,370c0.28-0.02,0.56-0.01,0.83,0.04c0,0.67,0,1.33,0,2c-0.29,0.41-0.57,0.4-0.83-0.03
		C1,371.33,1,370.67,1,370z"/>
	<path class="st10" d="M640.17,370.04c0.28-0.04,0.55-0.05,0.83-0.04c0,0.67,0,1.33,0,2c-0.26,0.44-0.54,0.45-0.83,0.03
		C640.17,371.37,640.17,370.7,640.17,370.04z"/>
	<path class="st11" d="M1,372c0.28-0.02,0.56-0.01,0.83,0.03c0,0.66,0.01,1.33,0.01,1.99C1.55,374.45,1.27,374.44,1,374
		C1,373.33,1,372.67,1,372z"/>
	<path class="st11" d="M640.17,372.03c0.28-0.04,0.55-0.05,0.83-0.03c0,0.67,0,1.33,0,2c-0.27,0.44-0.55,0.45-0.84,0.03
		C640.16,373.36,640.16,372.7,640.17,372.03z"/>
	<path class="st12" d="M1,374c0.28-0.01,0.56,0,0.84,0.03c0,0.67,0,1.33,0,2C1.56,376,1.28,375.99,1,376C1,375.33,1,374.67,1,374z"
		/>
	<path class="st12" d="M640.16,374.03c0.28-0.03,0.56-0.04,0.84-0.03c0,0.67,0,1.33,0,2c-0.28-0.01-0.57,0-0.85,0.03
		C640.16,375.36,640.16,374.69,640.16,374.03z"/>
	<path class="st7" d="M1,335c0.28,0.02,0.57,0,0.85-0.05C2,335.82,1.92,336.58,1,337C1,336.33,1,335.67,1,335z"/>
</g>
</svg>
